<?xml version="1.0" encoding="UTF-8"?>
<svg width="92px" height="34px" viewBox="0 0 92 34" version="1.1" xmlns="http://www.w3.org/2000/svg" xmlns:xlink="http://www.w3.org/1999/xlink">
    <!-- Generator: Sketch 42 (36781) - http://www.bohemiancoding.com/sketch -->
    <title>coveo logo</title>
    <desc>Created with Sketch.</desc>
    <defs>
        <polygon id="path-1" points="0 0.345762712 0 16.6542373 12.362385 16.6542373 12.362385 0.345762712 1.55854062e-20 0.345762712"></polygon>
        <polygon id="path-3" points="12.879885 0.518644068 0.229885 0.518644068 0.229885 15.0981898 12.879885 15.0981898 12.879885 0.518644068"></polygon>
    </defs>
    <g id="Page-1" stroke="none" stroke-width="1" fill="none" fill-rule="evenodd">
        <g id="Desktop-HD" transform="translate(-131.000000, -55.000000)">
            <g id="footer" transform="translate(0.000000, 55.000000)">
                <g id="coveo-logo" transform="translate(131.000000, 0.000000)">
                    <g id="Group-3" transform="translate(0.000000, 16.769492)">
                        <mask id="mask-2" fill="white">
                            <use xlink:href="#path-1"></use>
                        </mask>
                        <g id="Clip-2"></g>
                        <path d="M12.304885,5.18644068 C11.154885,3.86101695 9.717385,3.11186441 7.934885,3.11186441 C5.059885,3.11186441 2.874885,5.64745763 2.874885,8.47118644 C2.874885,11.640678 5.059885,13.8881356 8.164885,13.8881356 C9.832385,13.8881356 11.212385,13.0813559 12.362385,11.8711864 L12.362385,15.6169492 C11.039885,16.3084746 9.659885,16.6542373 8.164885,16.6542373 C3.679885,16.6542373 -0.000115,13.1966102 -0.000115,8.58644068 C-0.000115,3.86101695 3.679885,0.345762712 8.337385,0.345762712 C9.717385,0.345762712 11.212385,0.691525424 12.362385,1.38305085 L12.304885,5.18644068 Z" id="Fill-1" fill="#004990" mask="url(#mask-2)"></path>
                    </g>
                    <path d="M33.695,25.2981898 C33.695,29.9083593 30.13,33.4241898 25.53,33.4241898 C20.9875,33.4241898 17.365,29.9083593 17.365,25.2981898 C17.365,20.6880203 20.93,17.1727661 25.53,17.1727661 C30.13,17.1727661 33.695,20.6880203 33.695,25.2981898 M20.355,25.2981898 C20.355,28.1795458 22.655,30.5998847 25.5875,30.5998847 C28.52,30.5998847 30.82,28.1795458 30.82,25.2981898 C30.82,22.3592068 28.52,19.9964949 25.5875,19.9964949 C22.655,19.9964949 20.355,22.4168339 20.355,25.2981898" id="Fill-4" fill="#004990"></path>
                    <polygon id="Fill-6" fill="#004990" points="44.8499425 27.1997695 49.2774425 17.6336678 52.5549425 17.6336678 44.8499425 33.4811254 37.2024425 17.6336678 40.4799425 17.6336678"></polygon>
                    <path d="M59.167385,25.7590915 C59.167385,28.3523119 60.95046,30.8308542 63.767385,30.8308542 C66.009885,30.8308542 67.217385,29.6783119 68.309885,27.8342441 L70.782385,29.2167186 C69.344885,31.8681424 66.70046,33.4240746 63.709885,33.4240746 C59.052385,33.4240746 56.234885,29.9082441 56.234885,25.356278 C56.234885,20.6308542 58.764885,17.1150237 63.652385,17.1150237 C68.539885,17.1150237 70.782385,20.6879051 70.782385,25.2410237 L70.782385,25.7590915 L59.167385,25.7590915 Z M67.85046,23.569261 C67.504885,21.2641763 66.009885,19.7664475 63.652385,19.7664475 C61.352385,19.7664475 59.684885,21.3794305 59.282385,23.569261 L67.85046,23.569261 Z" id="Fill-8" fill="#004990"></path>
                    <path d="M91.53977,25.2981898 C91.53977,29.9083593 87.975345,33.4241898 83.375345,33.4241898 C78.83227,33.4241898 75.210345,29.9083593 75.210345,25.2981898 C75.210345,20.6880203 78.775345,17.1727661 83.375345,17.1727661 C87.91727,17.1727661 91.53977,20.6880203 91.53977,25.2981898 M78.14227,25.2981898 C78.14227,28.1795458 80.44227,30.5998847 83.375345,30.5998847 C86.30727,30.5998847 88.60727,28.1795458 88.60727,25.2981898 C88.60727,22.3592068 86.30727,19.9964949 83.375345,19.9964949 C80.44227,19.9964949 78.14227,22.4168339 78.14227,25.2981898" id="Fill-10" fill="#004990"></path>
                    <g id="Group-14" transform="translate(56.925000, 0.057627)">
                        <mask id="mask-4" fill="white">
                            <use xlink:href="#path-3"></use>
                        </mask>
                        <g id="Clip-13"></g>
                        <polygon id="Fill-12" fill="#F6801F" mask="url(#mask-4)" points="12.879885 7.80835932 0.229885 0.518528814 0.229885 15.0981898"></polygon>
                    </g>
                </g>
            </g>
        </g>
    </g>
</svg>