<svg viewBox="0 0 1018 580" xmlns="http://www.w3.org/2000/svg"><g fill="none" fill-rule="evenodd" transform="translate(-1-1)"><path d="m140.7 80.1l-140.7 82.1v-161.8l140.7 79.7" transform="matrix(1 0 0-1 637.04 163.66)" fill="#f58020"/><g fill="#fff"><path d="m138.3 128.1c-13 14.8-29 22.8-48.6 22.8-31.9 0-56.5-28.2-56.5-59.4 0-34.8 24.2-60.1 58.7-60.1 18.8 0 34 8.7 46.4 22.4v-41.7c-14.8-8-29.7-11.3-46.7-11.3-50 0-91 38.4-91 89.2 0 52.5 40.6 91.3 92.8 91.3 15.2 0 31.9-3.6 44.9-11.2v-42" transform="matrix(1 0 0-1 .594 367.15)"/><path d="m33.3 90.3c0-31.9 25.8-59.1 58-59.1 32.3 0 58 27.1 58 59.1 0 32.3-25.7 59.1-58 59.1-32.2 0-58-26.8-58-59.1m148.7 0c0-51.1-39.9-90.2-90.6-90.2-50.7 0-90.6 39.1-90.6 90.2 0 51.1 39.8 90.3 90.5 90.3 50.7 0 90.7-39.2 90.7-90.3" transform="matrix(1 0 0-1 194.3 366.36)"/><path d="m129.8 110.2c-4 25.4-20.6 42.4-46.8 42.4-25.3 0-44.2-18-48.3-42.4h95.1m-96.7-24.6c.3-29.1 19.9-56.2 51.1-56.2 25 0 38.4 12.7 50.8 33l27.5-15.6c-16-29.4-45.7-46.4-78.6-46.4-51.8 0-83.3 39.2-83.3 89.2 0 52.2 27.9 91.3 82.6 91.3 54 0 79.4-39.9 79.4-90.2v-5l-129.5-.1" transform="matrix(1 0 0-1 626.15 366.66)"/><path d="m33.1 90.3c0-31.9 25.7-59.1 58-59.1 32.3 0 58 27.1 58 59.1 0 32.3-25.7 59.1-58 59.1-32.3 0-58-26.8-58-59.1m148.6 0c0-51.1-39.8-90.2-90.6-90.2-50.7 0-90.5 39.1-90.5 90.2 0 51.1 39.8 90.3 90.5 90.3 50.7 0 90.6-39.2 90.6-90.3" transform="matrix(1 0 0-1 837.05 366.36)"/><path d="m500.2 296.7l48.9-105.9h36.6l-85.5 175.5-85.2-175.4h36.6l48.6 105.8"/></g></g></svg>